<?xml version="1.0" encoding="UTF-8" standalone="no"?>
<svg xmlns:rdf="http://www.w3.org/1999/02/22-rdf-syntax-ns#" xmlns="http://www.w3.org/2000/svg" height="48" width="48" version="1.1" xmlns:cc="http://creativecommons.org/ns#" xmlns:xlink="http://www.w3.org/1999/xlink" viewBox="0 0 48 48.000001" xmlns:dc="http://purl.org/dc/elements/1.1/">
 <defs>
  <linearGradient id="linearGradient4396">
   <stop stop-color="#fff" offset="0"/>
   <stop stop-color="#fff" stop-opacity=".27451" offset=".13452"/>
   <stop stop-color="#fff" stop-opacity=".27451" offset=".85437"/>
   <stop stop-color="#fff" stop-opacity=".65" offset="1"/>
  </linearGradient>
  <linearGradient id="linearGradient4322">
   <stop stop-color="#fff" offset="0"/>
   <stop stop-color="#fff" stop-opacity="0" offset="1"/>
  </linearGradient>
  <linearGradient id="linearGradient4314">
   <stop stop-color="#ccc" stop-opacity="0" offset="0"/>
   <stop stop-color="#ccc" stop-opacity="0" offset="1"/>
  </linearGradient>
  <linearGradient id="linearGradient4312" y2="1007.9" gradientUnits="userSpaceOnUse" x2="23.5" gradientTransform="matrix(1 0 0 1.05 0 -51.393)" y1="1047.4" x1="23.5">
   <stop stop-color="#d7d7d7" offset="0"/>
   <stop stop-color="#ececec" offset="1"/>
  </linearGradient>
  <linearGradient id="linearGradient4320" y2="1015.9" xlink:href="#linearGradient4314" gradientUnits="userSpaceOnUse" x2="24" gradientTransform="translate(0 -2030.7)" y1="1010.4" x1="24"/>
  <linearGradient id="linearGradient4328" y2="1015.9" xlink:href="#linearGradient4322" gradientUnits="userSpaceOnUse" x2="24" gradientTransform="translate(0 -2030.7)" y1="1010.4" x1="24"/>
  <linearGradient id="linearGradient4320-6" y2="1015.9" xlink:href="#linearGradient4314" gradientUnits="userSpaceOnUse" x2="24" gradientTransform="translate(.0000034867 -2056.7)" y1="1010.4" x1="24"/>
  <linearGradient id="linearGradient4328-1" y2="1015.9" xlink:href="#linearGradient4322" gradientUnits="userSpaceOnUse" x2="24" gradientTransform="translate(.0000034867 -2056.7)" y1="1010.4" x1="24"/>
  <linearGradient id="linearGradient4371" y2="1009.4" gradientUnits="userSpaceOnUse" x2="22.919" gradientTransform="matrix(1 0 0 1.0526 0 -54.096)" y1="1046.4" x1="22.919">
   <stop stop-color="#f2f2f2" offset="0"/>
   <stop stop-color="#ececec" offset=".052364"/>
   <stop stop-color="#f2f2f2" offset=".94595"/>
   <stop stop-color="#fff" offset="1"/>
  </linearGradient>
  <linearGradient id="linearGradient4402" y2="1030.5" xlink:href="#linearGradient4396" gradientUnits="userSpaceOnUse" x2="16.485" gradientTransform="matrix(1 0 0 1.3333 0 -342.61)" y1="1025.3" x1="16.485"/>
  <linearGradient id="linearGradient4229" y2="1032.4" gradientUnits="userSpaceOnUse" x2="14" y1="1023.3" x1="14">
   <stop stop-color="#ccc" offset="0"/>
   <stop stop-color="#999" offset="1"/>
  </linearGradient>
  <linearGradient id="linearGradient4402-2" y2="1030.5" xlink:href="#linearGradient4396" gradientUnits="userSpaceOnUse" x2="16.485" gradientTransform="matrix(1 0 0 1.3333 19 -342.61)" y1="1025.3" x1="16.485"/>
  <linearGradient id="linearGradient4229-5" y2="1032.4" gradientUnits="userSpaceOnUse" x2="14" gradientTransform="translate(19 .000042927)" y1="1023.3" x1="14">
   <stop stop-color="#ccc" offset="0"/>
   <stop stop-color="#999" offset="1"/>
  </linearGradient>
 </defs>
 <g transform="translate(0 -1004.4)">
  <g>
   <g>
    <g stroke-linejoin="round">
     <rect height="42" stroke="#808080" fill="url(#linearGradient4312)" style="color:#000000" ry="2.6923" width="41" y="1006.9" x="3.5"/>
     <rect ry="2.0804" stroke="url(#linearGradient4328)" fill="url(#linearGradient4320)" style="color:#000000" transform="scale(1,-1)" width="35" opacity=".7" height="10" y="-1019.9" x="6.5"/>
     <rect height="8" stroke="#808080" fill="#dde9af" style="color:#000000" ry="1.0909" width="33" y="1010.9" x="7.5"/>
     <rect ry="2.0804" stroke="url(#linearGradient4328-1)" fill="url(#linearGradient4320-6)" style="color:#000000" transform="scale(1,-1)" width="35" opacity=".5" height="10" y="-1045.9" x="6.5"/>
     <rect height="7.9999" stroke="#808080" fill="#dde9af" style="color:#000000" ry="1.0909" width="33" y="1036.9" x="7.5"/>
     <rect height="10" stroke="#808080" fill="url(#linearGradient4229)" style="color:#000000" ry="1.3637" width="14" y="1022.9" x="7.5"/>
    </g>
    <path style="color-rendering:auto;color:#000000;isolation:auto;mix-blend-mode:normal;shape-rendering:auto;solid-color:#000000;image-rendering:auto" d="m14 1026.4v2h-2v1h2v2h1v-2h2v-1h-2v-2h-1z" fill="#999"/>
    <path style="color-rendering:auto;color:#000000;isolation:auto;mix-blend-mode:normal;shape-rendering:auto;solid-color:#000000;image-rendering:auto" d="m14 1025.4v2h-2v1h2v2h1v-2h2v-1h-2v-2h-1z" fill="#f2f2f2"/>
   </g>
   <g fill="#666">
    <path d="m10.987 1013.2-0.05065-0.6947q0.82494-0.1809 1.6065-0.1809 0.81047 0 1.2012 0.2388 0.398 0.2315 0.398 0.89 0 0.4559-0.17367 0.825-0.17367 0.3618-0.6585 0.8901l-1.3242 1.4255q0.29669-0.043 0.77428-0.043h1.5413v0.8539h-3.4011v-0.5427q0-0.2388 0.13025-0.3763l1.3025-1.4401q0.90454-0.9624 0.8973-1.5196-0.0072-0.2605-0.18814-0.3329-0.17367-0.08-0.59338-0.08-0.69468 0-1.4617 0.087z"/>
    <path d="m15.121 1013.1-0.04342-0.6875q0.76705-0.1303 1.4907-0.1303 0.85388 0 1.2157 0.2533 0.36905 0.2533 0.36905 0.9046 0 0.5427-0.16644 0.8611-0.1592 0.3184-0.56443 0.398v0.029q0.47036 0.08 0.6585 0.3835 0.18814 0.304 0.20262 0.8684 0.01447 0.7815-0.36182 1.1361-0.37629 0.3473-1.2808 0.3473-0.70916 0-1.6571-0.1302l0.04342-0.7092q0.86836 0.058 1.3749 0.058 0.5572 0 0.76705-0.1736 0.21709-0.1737 0.21709-0.6368 0-0.4125-0.17367-0.5934-0.17367-0.1882-0.67298-0.1809h-0.92625v-0.673h0.92625q0.47036 0 0.60785-0.1881 0.14473-0.1882 0.14473-0.5717-0.0072-0.3908-0.18091-0.4993-0.16644-0.1086-0.68745-0.1086-0.78152 0-1.3025 0.043z"/>
    <path d="m19.453 1014.1h0.26051q0.18091 0 0.24604 0.072 0.07236 0.065 0.07236 0.2388v0.3691q0 0.1737-0.07236 0.246-0.06513 0.065-0.24604 0.065h-0.26051q-0.18091 0-0.25327-0.065-0.06513-0.072-0.06513-0.246v-0.3691q0-0.1736 0.06513-0.2388 0.07236-0.072 0.25327-0.072zm0 2.236h0.26051q0.18091 0 0.24604 0.065 0.07236 0.065 0.07236 0.2461v0.3618q0 0.1809-0.07236 0.2532-0.06513 0.065-0.24604 0.065h-0.26051q-0.18091 0-0.25327-0.065-0.06513-0.072-0.06513-0.2532v-0.3618q0-0.1809 0.06513-0.2461 0.07236-0.065 0.25327-0.065z"/>
    <path d="m22.788 1017.4h-0.90454v-3.6833q0-0.2822 0.03618-0.4921l-1.1723 0.3329-0.10854-0.644 1.2446-0.5066h0.90454v4.9931z"/>
    <path d="m26.935 1013.1h-2.0551l-0.05789 1.0637 0.62956 0.072q0.91178 0.087 1.2881 0.4703 0.37629 0.3763 0.36905 1.1289 0 0.3329-0.07236 0.6006-0.07236 0.2605-0.24604 0.4993-0.17367 0.2388-0.52101 0.3691-0.34011 0.1302-0.83218 0.1302-0.7164 0-1.592-0.1664l0.09407-0.7309q0.68745 0.1086 1.2736 0.1086 0.58614 0 0.78876-0.181 0.20262-0.1881 0.21709-0.6368 0.0072-0.1881-0.01447-0.3183-0.02171-0.1375-0.10854-0.2316-0.0796-0.094-0.1592-0.1447-0.0796-0.058-0.27498-0.094-0.19538-0.043-0.35458-0.058-0.15196-0.022-0.47036-0.051l-0.4776-0.051q-0.14473-0.01-0.2388-0.1086-0.08684-0.1085-0.07236-0.2532l0.11578-2.1637h2.8005l-0.02895 0.7454z"/>
    <path d="m28.215 1014.1h0.26051q0.18091 0 0.24604 0.072 0.07236 0.065 0.07236 0.2388v0.3691q0 0.1737-0.07236 0.246-0.06513 0.065-0.24604 0.065h-0.26051q-0.18091 0-0.25327-0.065-0.06513-0.072-0.06513-0.246v-0.3691q0-0.1736 0.06513-0.2388 0.07236-0.072 0.25327-0.072zm0 2.236h0.26051q0.18091 0 0.24604 0.065 0.07236 0.065 0.07236 0.2461v0.3618q0 0.1809-0.07236 0.2532-0.06513 0.065-0.24604 0.065h-0.26051q-0.18091 0-0.25327-0.065-0.06513-0.072-0.06513-0.2532v-0.3618q0-0.1809 0.06513-0.2461 0.07236-0.065 0.25327-0.065z"/>
    <path d="m33.563 1015.5v0.6078l-0.62956 0.094h-0.01447v1.1289h-0.85388v-1.1289h-1.961q-0.33287 0-0.4993-0.2677-0.1592-0.2678-0.02895-0.5717l1.3315-3.0248h0.87559l-1.2664 2.9018q-0.11578 0.2605 0.1592 0.2605h1.3894v-1.3894l0.15196-0.8104h0.70192v2.1998h0.64403z"/>
    <path d="m37.238 1013.1h-2.0551l-0.05789 1.0637 0.62956 0.072q0.91178 0.087 1.2881 0.4703 0.37629 0.3763 0.36905 1.1289 0 0.3329-0.07236 0.6006-0.07236 0.2605-0.24604 0.4993-0.17367 0.2388-0.52101 0.3691-0.34011 0.1302-0.83218 0.1302-0.7164 0-1.592-0.1664l0.09407-0.7309q0.68745 0.1086 1.2736 0.1086 0.58614 0 0.78876-0.181 0.20262-0.1881 0.21709-0.6368 0.0072-0.1881-0.01447-0.3183-0.02171-0.1375-0.10854-0.2316-0.0796-0.094-0.1592-0.1447-0.0796-0.058-0.27498-0.094-0.19538-0.043-0.35458-0.058-0.15196-0.022-0.47036-0.051l-0.4776-0.051q-0.14473-0.01-0.2388-0.1086-0.08684-0.1085-0.07236-0.2532l0.11578-2.1637h2.8005l-0.02895 0.7454z"/>
   </g>
   <g fill="#666">
    <path d="m10.405 1038.9q0.40523-0.5934 1.4183-0.5934t1.4183 0.5934q0.41247 0.5861 0.41247 1.9972t-0.41247 2.0044q-0.40523 0.5862-1.4183 0.5862t-1.4183-0.5862q-0.40523-0.5933-0.40523-2.0044t0.40523-1.9972zm1.4111 0.1664q-0.53549 0-0.7381 0.3908-0.19538 0.3907-0.19538 1.44 0 1.0492 0.19538 1.44 0.20262 0.3908 0.7381 0.3908 0.54996 0 0.75258-0.3908t0.20262-1.44q0-1.0493-0.20262-1.44-0.20262-0.3908-0.75258-0.3908z"/>
    <path d="m14.625 1043.3 0.06513-0.6368q0.37629 0.022 1.1216 0.022 0.62232 0 0.86112-0.3039 0.2388-0.3111 0.27498-1.194-0.2388 0.2461-0.50654 0.3474-0.26774 0.094-0.66574 0.094-1.3677 0-1.3677-1.6137-0.0072-0.919 0.37629-1.3387 0.38352-0.4197 1.3025-0.4197 0.45589 0 0.75258 0.08 0.30392 0.08 0.4993 0.2461 0.20262 0.1592 0.30392 0.4775 0.10131 0.3112 0.13749 0.7092 0.04342 0.3908 0.04342 1.0131 0 0.8322-0.10854 1.3532-0.10131 0.5138-0.36182 0.8032-0.25327 0.2822-0.60785 0.3835-0.34734 0.1013-0.92625 0.1013-0.70192 0-1.194-0.123zm1.4111-2.3662q0.25327 0 0.44865-0.072 0.20262-0.08 0.47036-0.275 0-0.4269-0.02171-0.6585-0.01447-0.2316-0.05789-0.4414-0.04342-0.2099-0.14473-0.2967-0.10131-0.094-0.25327-0.1447-0.15196-0.051-0.398-0.051-0.4993 0-0.66574 0.2388-0.1592 0.2316-0.15196 0.7743-0.0072 0.4848 0.1592 0.7092 0.17367 0.2171 0.61509 0.2171z"/>
    <path d="m18.99 1040.1h0.26051q0.18091 0 0.24604 0.072 0.07236 0.065 0.07236 0.2388v0.369q0 0.1737-0.07236 0.2461-0.06513 0.065-0.24604 0.065h-0.26051q-0.18091 0-0.25327-0.065-0.06513-0.072-0.06513-0.2461v-0.369q0-0.1737 0.06513-0.2388 0.07236-0.072 0.25327-0.072zm0 2.236h0.26051q0.18091 0 0.24604 0.065 0.07236 0.065 0.07236 0.246v0.3618q0 0.1809-0.07236 0.2533-0.06513 0.065-0.24604 0.065h-0.26051q-0.18091 0-0.25327-0.065-0.06513-0.072-0.06513-0.2533v-0.3618q0-0.1809 0.06513-0.246 0.07236-0.065 0.25327-0.065z"/>
    <path d="m20.516 1039.2-0.05065-0.6947q0.82494-0.1809 1.6065-0.1809 0.81047 0 1.2012 0.2388 0.398 0.2316 0.398 0.8901 0 0.4559-0.17367 0.8249-0.17367 0.3618-0.6585 0.8901l-1.3242 1.4255q0.29669-0.043 0.77428-0.043h1.5413v0.8539h-3.4011v-0.5427q0-0.2388 0.13025-0.3763l1.3025-1.44q0.90454-0.9625 0.8973-1.5197-0.0072-0.2605-0.18814-0.3328-0.17367-0.08-0.59338-0.08-0.69468 0-1.4617 0.087z"/>
    <path d="m25.447 1040.8v-0.029q-0.36905-0.043-0.54272-0.3473-0.17367-0.3112-0.17367-0.796 0-0.7164 0.34734-1.0203t1.3098-0.3039q0.96967 0 1.317 0.3039 0.34734 0.2967 0.34734 1.0203 0 0.4848-0.18091 0.796-0.17367 0.3039-0.54272 0.3473v0.029q0.46312 0.043 0.65127 0.3907 0.18814 0.3401 0.18814 0.9408 0 0.7164-0.36905 1.0203t-1.4111 0.3111q-1.0203 0.01-1.3966-0.3039-0.37629-0.3111-0.37629-1.0275 0-0.6007 0.18091-0.9408 0.18814-0.3473 0.65127-0.3907zm1.6137-1.6571q-0.1592-0.152-0.66574-0.152t-0.68021 0.152q-0.16644 0.1519-0.16644 0.5789 0 0.4342 0.16644 0.5789 0.17367 0.1447 0.68745 0.1447t0.66574-0.1447q0.1592-0.1447 0.1592-0.5789 0-0.427-0.16644-0.5789zm-0.6585 1.9827q-0.56443 0.01-0.75258 0.1737-0.18091 0.1592-0.18091 0.6368 0 0.4559 0.18091 0.6223 0.18814 0.1592 0.74534 0.1592 0.54996 0 0.73087-0.1592 0.18091-0.1664 0.18091-0.6223 0-0.4849-0.18091-0.644-0.17367-0.1665-0.72363-0.1665z"/>
    <path d="m29.335 1040.1h0.26051q0.18091 0 0.24604 0.072 0.07236 0.065 0.07236 0.2388v0.369q0 0.1737-0.07236 0.2461-0.06513 0.065-0.24604 0.065h-0.26051q-0.18091 0-0.25327-0.065-0.06513-0.072-0.06513-0.2461v-0.369q0-0.1737 0.06513-0.2388 0.07236-0.072 0.25327-0.072zm0 2.236h0.26051q0.18091 0 0.24604 0.065 0.07236 0.065 0.07236 0.246v0.3618q0 0.1809-0.07236 0.2533-0.06513 0.065-0.24604 0.065h-0.26051q-0.18091 0-0.25327-0.065-0.06513-0.072-0.06513-0.2533v-0.3618q0-0.1809 0.06513-0.246 0.07236-0.065 0.25327-0.065z"/>
    <path d="m30.884 1039.1-0.04342-0.6875q0.76705-0.1302 1.4907-0.1302 0.85388 0 1.2157 0.2533 0.36905 0.2532 0.36905 0.9045 0 0.5427-0.16644 0.8611-0.1592 0.3184-0.56443 0.398v0.029q0.47036 0.08 0.6585 0.3835 0.18814 0.3039 0.20262 0.8683 0.01447 0.7816-0.36182 1.1361-0.37629 0.3474-1.2808 0.3474-0.70916 0-1.6571-0.1303l0.04342-0.7091q0.86836 0.058 1.3749 0.058 0.5572 0 0.76705-0.1737 0.21709-0.1737 0.21709-0.6368 0-0.4125-0.17367-0.5934-0.17367-0.1881-0.67298-0.1809h-0.92625v-0.673h0.92625q0.47036 0 0.60785-0.1881 0.14473-0.1882 0.14473-0.5717-0.0072-0.3907-0.18091-0.4993-0.16644-0.1085-0.68745-0.1085-0.78152 0-1.3025 0.043z"/>
    <path d="m34.918 1039.2-0.05065-0.6947q0.82494-0.1809 1.6065-0.1809 0.81047 0 1.2012 0.2388 0.398 0.2316 0.398 0.8901 0 0.4559-0.17367 0.8249-0.17367 0.3618-0.6585 0.8901l-1.3242 1.4255q0.29669-0.043 0.77428-0.043h1.5413v0.8539h-3.4011v-0.5427q0-0.2388 0.13025-0.3763l1.3025-1.44q0.90454-0.9625 0.8973-1.5197-0.0072-0.2605-0.18814-0.3328-0.17367-0.08-0.59338-0.08-0.69468 0-1.4617 0.087z"/>
   </g>
  </g>
  <g stroke-linejoin="round">
   <rect opacity=".7" style="color-rendering:auto;color:#000000;isolation:auto;mix-blend-mode:normal;shape-rendering:auto;solid-color:#000000;image-rendering:auto" ry="1.5917" height="40" width="39" stroke="url(#linearGradient4371)" y="1007.9" x="4.5" fill="none"/>
   <rect opacity=".4" style="color:#000000" ry=".36028" height="7.9999" width="12" stroke="url(#linearGradient4402)" y="1023.9" x="8.5" fill="none"/>
   <rect height="10" stroke="#808080" fill="url(#linearGradient4229-5)" style="color:#000000" ry="1.3637" width="14" y="1022.9" x="26.5"/>
   <rect opacity=".4" style="color:#000000" ry=".36028" height="7.9999" width="12" stroke="url(#linearGradient4402-2)" y="1023.9" x="27.5" fill="none"/>
  </g>
  <rect style="color:#000000" ry=".000041844" height="1" width="5" y="1027.4" x="31" fill="#f2f2f2"/>
  <rect style="color:#000000" ry=".000041844" height="1" width="5" y="1028.4" x="31" fill="#999"/>
 </g>
</svg>
